Coordinates
version=1
nRows=8
nColumns=36
inDegrees=yes

Units are S.I. units (second, meters, Newtons, ...)
If the header above contains a line with 'inDegrees', this indicates whether rotational values are in degrees (yes) or radians (no).

endheader
time	pelvis_tilt	pelvis_list	pelvis_rotation	pelvis_tx	pelvis_ty	pelvis_tz	hip_flexion_r	hip_adduction_r	hip_rotation_r	knee_angle_r	knee_angle_r_beta	ankle_angle_r	subtalar_angle_r	mtp_angle_r	hip_flexion_l	hip_adduction_l	hip_rotation_l	knee_angle_l	knee_angle_l_beta	ankle_angle_l	subtalar_angle_l	mtp_angle_l	lumbar_extension	lumbar_bending	lumbar_rotation	arm_flex_r	arm_add_r	arm_rot_r	elbow_flex_r	pro_sup_r	arm_flex_l	arm_add_l	arm_rot_l	elbow_flex_l	pro_sup_l
      4.20000000	    -31.66748564	      0.94956131	     -3.07561270	      0.56647589	      0.66150401	      0.04722510	     83.69532521	    -21.08942643	     -7.44862655	     88.09116598	      1.53748089	     38.42005622	     -7.17391960	     -7.49999987	     85.66965999	    -20.04710962	     -2.00542105	     85.95206169	      1.50014648	     34.18699671	    -10.21531408	     -7.49999987	    -14.26056018	      1.34832026	      7.36757407	     70.27818373	    -11.22958436	     69.58566346	    130.16125272	     98.18019107	     73.40817561	      0.14936662	     76.64266543	    123.89066648	    102.97728194
      4.21666670	    -32.13984443	      0.87708774	     -3.16602977	      0.55832529	      0.65057141	      0.04917870	     85.64163043	    -21.01761238	     -6.92737613	     89.98416684	      1.57051999	     38.83941989	     -7.76386304	     -7.49999987	     87.78048682	    -20.26780277	     -1.33487505	     87.92399246	      1.53456316	     34.50034904	    -10.40456771	     -7.49999987	    -15.76770635	      1.41996646	      7.62924582	     70.96891389	    -11.95859482	     69.51514844	    129.39416907	     98.15541366	     73.95220536	     -0.10877084	     76.44864160	    123.34366114	    102.93695049
      4.23333330	    -32.99697868	      0.76497511	     -3.34395648	      0.55045916	      0.62124885	      0.04495989	     88.63281315	    -20.90596268	     -6.21078928	     92.62403827	      1.61659443	     39.25977070	     -8.26939466	     -7.49999987	     90.93931189	    -20.64593738	     -0.43339352	     90.61275995	      1.58149101	     34.73267036	    -10.35611706	     -7.49999987	    -16.00759573	      1.65203305	      7.65005192	     72.62252354	    -12.17407395	     69.28486387	    130.82273876	     99.32232377	     75.82236912	      0.70540184	     75.57450137	    124.14397214	    104.23571948
      4.25000000	    -33.74362206	      0.59813581	     -3.52781417	      0.54912688	      0.61327566	      0.04463586	     91.29232327	    -20.74488327	     -5.69404510	     94.91463473	      1.65657288	     39.24623469	     -9.53479188	     -7.49999987	     93.88206069	    -20.91623152	      0.58854653	     93.00686082	      1.62327595	     34.83407381	    -10.76460225	     -7.49999987	    -16.76871502	      1.87968500	      8.03846667	     73.56479191	    -12.78983843	     69.15828098	    130.03805636	     98.18499393	     76.83850339	      1.01083519	     75.05310457	    122.87067499	    102.66727878
      4.26666670	    -34.73859984	      0.45333901	     -3.74406097	      0.54100378	      0.60157858	      0.04075273	     94.11014331	    -20.53569356	     -5.21457952	     96.93307202	      1.69180126	     39.09726697	    -10.74387965	     -7.49999987	     97.03947374	    -21.10706862	      1.64180733	     95.20539331	      1.66164758	     34.88807898	    -11.04099484	     -7.49999987	    -17.41979486	      2.12546380	      8.92495556	     73.91944213	    -15.17724921	     68.93329771	    129.87456830	     97.79684019	     77.65102601	      1.92673789	     74.51805026	    119.63281695	    102.61036997
      4.28333330	    -35.05618918	      0.37402431	     -3.91870533	      0.54757776	      0.58435210	      0.04525983	     96.26813935	    -20.41597690	     -4.60489822	     99.14022626	      1.73032337	     39.28674970	    -11.39819204	     -7.49999987	     99.37210844	    -21.27367138	      2.58074308	     97.40051356	      1.69995965	     35.04304164	    -11.20764025	     -7.49999987	    -18.26180376	      1.96451170	      9.34610321	     74.17603707	    -13.90889478	     69.88983159	    131.33776685	     96.66978076	     78.59043775	      2.66992402	     73.40035969	    120.45813132	    101.12824702
      4.30000000	    -35.50688722	      0.32958093	     -4.04012256	      0.53933540	      0.56732071	      0.04104649	     98.81360590	    -20.38052081	     -3.85231842	    101.49417986	      1.77140761	     39.38280528	    -12.20052956	     -7.49999987	    102.05835230	    -21.37541332	      3.51790810	     99.71930536	      1.74043021	     35.15808118	    -11.38321446	     -7.49999987	    -18.78919361	      2.12198524	      9.26820379	     75.21413200	    -15.24740680	     69.27641511	    131.69760168	     94.05372689	     79.28876435	      2.80841551	     73.22924449	    120.27546907	     98.76560401
      4.31666670	    -36.04047464	      0.14916772	     -4.24950183	      0.53729562	      0.55998040	      0.04703999	    101.02717216	    -20.15309597	     -3.44524207	    103.48947971	      1.80623216	     39.38774980	    -13.02176667	     -7.49999987	    104.72033191	    -21.56594795	      4.65824547	    101.77821237	      1.77636491	     35.19185801	    -11.49434427	     -7.49999987	    -19.51374631	      2.09426007	     10.17600083	     75.72166414	    -15.86710678	     71.21001270	    130.64035819	     94.01994620	     79.68126052	      2.91887138	     74.07935031	    118.73950716	     99.13152779
